# AST/ASF file generated using VICON BodyLanguage
# -----------------------------------------------
:version 1.10
:name VICON
:units
  mass 1.0
  length 0.45
  angle deg
:documentation
   .ast/.asf automatically generated from VICON data using
   VICON BodyBuilder and BodyLanguage model FoxedUp or BRILLIANT.MOD
:root
   order TX TY TZ RX RY RZ
   axis XYZ
   position 0 0 0  
   orientation 0 0 0 
:bonedata
  begin
     id 1 
     name lhipjoint
     direction 0.693937 -0.600361 0.397515 
     length 2.37164 
     axis 0 0 0  XYZ
  end
  begin
     id 2 
     name lfemur
     direction 0.34202 -0.939693 0  
     length 6.18497  
     axis 0 0 20  XYZ
    dof rx ry rz
    limits (-160.0 20.0)
           (-70.0 70.0)
           (-60.0 70.0)
  end
  begin
     id 3 
     name ltibia
     direction 0.34202 -0.939693 0   
     length 6.91601   
     axis 0 0 20   XYZ
    dof rx
    limits (-10.0 170.0)
  end
  begin
     id 4 
     name lfoot
     direction 0.0978718 -0.2689 0.958182   
     length 1.81453   
     axis -90 7.62852e-016 20   XYZ
    dof rx rz
    limits (-45.0 90.0)
           (-70.0 20.0)
  end
  begin
     id 5 
     name ltoes
     direction 1.53569e-011 -4.21951e-011 1   
     length 0.912052   
     axis -90 7.62852e-016 20   XYZ
    dof rx
    limits (-90.0 20.0)
  end
  begin
     id 6 
     name rhipjoint
     direction -0.643996 -0.637876 0.422354   
     length 2.23216  
     axis 0 0 0  XYZ 
  end
  begin
     id 7 
     name rfemur
     direction -0.34202 -0.939693 0   
     length 6.15404   
     axis 0 0 -20   XYZ
    dof rx ry rz
    limits (-160.0 20.0)
           (-70.0 70.0)
           (-70.0 60.0)
  end
  begin
     id 8 
     name rtibia
     direction -0.34202 -0.939693 0   
     length 6.86744   
     axis 0 0 -20   XYZ
    dof rx
    limits (-10.0 170.0)
 end
 begin
     id 9 
     name rfoot
     direction -0.118701 -0.326127 0.937844   
     length 1.9243  
     axis -90 -7.62852e-016 -20   XYZ
    dof rx rz
    limits (-45.0 90.0)
           (-20.0 70.0)
  end
  begin
     id 10 
     name rtoes
     direction -1.5356e-011 -4.2181e-011 1   
     length 0.958865   
     axis -90 -7.62852e-016 -20   XYZ
    dof rx
    limits (-90.0 20.0)
  end
  begin
     id 11 
     name lowerback
     direction 0.0310826 0.968686 -0.246334   
     length 2.00021   
     axis 0 0 0   XYZ
    dof rx ry rz
    limits (-20.0 45.0)
           (-30.0 30.0)
           (-30.0 30.0)
  end
  begin
     id 12 
     name upperback
     direction -0.0152834 0.999474 -0.0286152   
     length 2.03728   
     axis 0 0 0   XYZ
    dof rx ry rz
    limits (-20.0 45.0)
           (-30.0 30.0)
           (-30.0 30.0)
  end
  begin
     id 13 
     name thorax
     direction -0.0323701 0.996236 0.0804149   
     length 2.16   
     axis 0 0 0   XYZ
    dof rx ry rz
    limits (-20.0 45.0)
           (-30.0 30.0)
           (-30.0 30.0)
  end
  begin
     id 14 
     name lowerneck
     direction 0.0307935 0.982251 0.185027   
     length 1.43558   
     axis 0 0 0   XYZ
    dof rx ry rz
    limits (-20.0 45.0)
           (-30.0 30.0)
           (-30.0 30.0)
  end
  begin
     id 15 
     name upperneck
     direction -0.0927153 0.994775 0.0427454   
     length 1.44603   
     axis 0 0 0   XYZ
    dof rx ry rz
    limits (-20.0 45.0)
           (-30.0 30.0)
           (-30.0 30.0)
  end
  begin
     id 16
     name head
     direction -0.0341265 0.999406 -0.00472033  
     length 1.45931  
     axis 0 0 0   XYZ
    dof rx ry rz
    limits (-20.0 45.0)
           (-30.0 30.0)
           (-30.0 30.0)
  end
  begin
     id 17 
     name lclavicle
     direction 0.820755 0.555306 -0.134151  
     length 2.66075  
     axis 0 0 0   XYZ
    dof ry rz
    limits (-20.0 10.0)
           (0.0 20.0)
  end
  begin
     id 18 
     name lhumerus
     direction 1 -4.48971e-011 5.24853e-027   
     length 5.0546   
     axis -180 -30 -90   XYZ
    dof rx ry rz
    limits (-60.0 90.0)
           (-90.0 90.0)
           (-90.0 90.0)
  end
  begin
     id 19
     name lradius
     direction 1 -4.48971e-011 2.76575e-028   
     length 3.39013   
     axis -180 -30 -90   XYZ
    dof rx
    limits (-10.0 170.0)
  end
  begin
     id 20
     name lwrist
     direction 1 -4.48939e-011 -2.27826e-027   
     length 1.69507   
     axis 2.17013e-015 90 90   XYZ
    dof ry
    limits (-180.0 0.0)
 end
  begin
     id 21 
     name lhand
     direction 1 -4.49009e-011 -4.55652e-027   
     length 0.572425   
     axis 2.90745e-015 90 90   XYZ
    dof rx rz
    limits (-90.0 90.0)
           (-45.0 45.0)
  end
  begin
     id 22 
     name lfingers
     direction 1 -4.48955e-011 -9.11303e-027   
     length 0.461504   
     axis 5.81489e-015 90 90   XYZ
    dof rx
    limits (0.0 90.0)
  end
  begin
     id 23
     name lthumb
     direction 0.707107 -6.34929e-011 0.707107   
     length 0.66263   
     axis -90 45 2.85299e-015   XYZ
    dof rx rz
    limits (-45.0 45.0)
           (-45.0 45.0)
  end
  begin
     id 24 
     name rclavicle
     direction -0.754477 0.632921 -0.173712   
     length 2.73081  
     axis 0 0 0   XYZ 
    dof ry rz
    limits (-10.0 20.0)
           (-20.0 0.0)
  end
  begin
     id 25 
     name rhumerus
     direction -1 -4.48969e-011 5.1496e-027  
     length 5.0701   
     axis -180 30 90   XYZ
    dof rx ry rz
    limits (-90.0 60.0)
           (-90.0 90.0)
           (-90.0 90.0)
  end
  begin
     id 26 
     name rradius
     direction -1 -4.48967e-011 -7.15624e-028   
     length 3.14957   
     axis -180 30 90   XYZ
    dof rx
    limits (-10.0 170.0)
  end
  begin
     id 27 
     name rwrist
     direction -1 -4.48938e-011 -2.27826e-027   
     length 1.57479   
     axis 2.17013e-015 -90 -90   XYZ
    dof ry
    limits (-180.0 0.0)
  end
  begin
     id 28
     name rhand
     direction -1 -4.49008e-011 -4.55652e-027   
     length 0.718191   
     axis 2.90745e-015 -90 -90   XYZ
    dof rx rz
    limits (-90.0 90.0)
           (-45.0 45.0)
  end
  begin
     id 29
     name rfingers
     direction -1 -4.48953e-011 -9.11303e-027   
     length 0.579024   
     axis 5.81489e-015 -90 -90   XYZ
    dof rx
    limits (0.0 90.0)
  end
  begin
     id 30
     name rthumb
     direction -0.707107 -6.34937e-011 0.707107   
     length 0.831366   
     axis -90 -45 -2.85299e-015   XYZ
    dof rx rz
    limits (-45.0 45.0)
           (-45.0 45.0)
  end
:hierarchy
  begin
    root lhipjoint rhipjoint lowerback
    lhipjoint lfemur
    lfemur ltibia
    ltibia lfoot
    lfoot ltoes
    rhipjoint rfemur
    rfemur rtibia
    rtibia rfoot
    rfoot rtoes
    lowerback upperback
    upperback thorax
    thorax lowerneck lclavicle rclavicle
    lowerneck upperneck
    upperneck head
    lclavicle lhumerus
    lhumerus lradius
    lradius lwrist
    lwrist lhand lthumb
    lhand lfingers
    rclavicle rhumerus
    rhumerus rradius
    rradius rwrist
    rwrist rhand rthumb
    rhand rfingers
  end

#!OML:ASF H:\Male1\Project 1\Capture day 1\Session 1\Male1.ASF
:FULLY-SPECIFIED
:DEGREES
102
root 22.2762 15.3688 0.247213 181.385 -81.246 -182.587
lowerback 9.67404 0.848052 2.11452
upperback 7.30009 0.921841 0.201836
thorax 2.20314 0.389429 -1.05169
lowerneck -8.56673 5.22597 12.4303
upperneck -0.324879 6.08486 -14.2664
head 2.16568 2.68165 -6.09572
rclavicle 8.34896e-015 3.57812e-015
rhumerus 10.2449 35.7085 -83.7314
rradius 135.064
rwrist -1.94819
rhand -7.87109 19.128
rfingers 7.12502
rthumb 18.0329 -10.056
lclavicle 8.34896e-015 3.57812e-015
lhumerus 14.0483 -15.659 77.7054
lradius 143.837
lwrist 5.14943
lhand -1.57322 -18.8397
lfingers 7.12502
lthumb 24.0827 9.66899
rfemur -10.7555 8.49504 19.3746
rtibia 29.0815
rfoot -22.551 -25.5954
rtoes -26.8208
lfemur -6.27845 -6.48886 -14.8455
ltibia 26.615
lfoot -19.3212 21.4711
ltoes -12.9714
103
root 22.2806 15.352 0.263422 181.45 -81.52 -182.864
lowerback 10.0941 0.934698 1.81623
upperback 7.22252 1.02713 0.0637707
thorax 1.89159 0.431307 -1.04169
lowerneck -8.7327 5.30635 12.479
upperneck -0.0427873 6.19973 -14.2591
head 2.29182 2.73217 -6.0886
rclavicle 1.70955e-014 -1.88845e-014
rhumerus 10.9774 35.2676 -83.2728
rradius 135.238
rwrist -2.07247
rhand -7.1402 18.1477
rfingers 7.12502
rthumb 18.736 -10.97
lclavicle 1.70955e-014 -1.88845e-014
lhumerus 15.137 -15.6871 77.0918
lradius 143.858
lwrist 5.21835
lhand -1.13188 -18.8167
lfingers 7.12502
lthumb 24.5058 9.63543
rfemur -10.7541 8.01362 19.2618
rtibia 29.4487
rfoot -22.5425 -25.4064
rtoes -27.057
lfemur -6.53346 -6.30489 -14.8851
ltibia 27.2369
lfoot -19.4787 20.9734
ltoes -12.6205
104
root 22.2801 15.3305 0.280541 181.452 -81.7911 -183.231
lowerback 10.2211 1.03458 1.54987
upperback 7.46689 1.12171 -0.0902903
thorax 2.07917 0.467813 -1.05964
lowerneck -8.79845 5.32664 12.2865
upperneck -0.145856 6.22009 -13.9681
head 2.25654 2.74792 -5.96226
rclavicle 5.41688e-015 -1.98785e-016
rhumerus 12.0718 34.786 -82.6745
rradius 135.367
rwrist -2.25582
rhand -6.51291 17.5692
rfingers 7.12502
rthumb 19.3392 -11.4892
lclavicle 5.41688e-015 -1.98785e-016
lhumerus 16.4503 -15.8001 76.4948
lradius 143.913
lwrist 5.14651
lhand -0.725716 -18.7813
lfingers 7.12502
lthumb 24.8951 9.61748
rfemur -10.5633 7.64492 19.1589
rtibia 29.847
rfoot -22.5969 -25.2806
rtoes -27.1641
lfemur -6.58671 -6.12143 -14.9413
ltibia 27.8109
lfoot -19.7227 20.3853
ltoes -11.9134
105
root 22.2818 15.3096 0.299142 179.164 -82.1455 -181.267
lowerback 10.4683 1.05571 1.6292
upperback 7.67552 1.13975 -0.150071
thorax 2.16893 0.475576 -1.16999
lowerneck -8.97547 5.59576 12.4608
upperneck -0.312441 6.53557 -14.09
head 2.28936 2.89519 -6.00532
rclavicle -1.19271e-014 2.10712e-014
rhumerus 12.9388 34.4134 -82.2459
rradius 135.451
rwrist -2.16388
rhand -6.26273 17.5548
rfingers 7.12502
rthumb 19.5798 -11.4793
lclavicle -1.19271e-014 2.10712e-014
lhumerus 17.3701 -16.0708 76.1106
lradius 144.014
lwrist 4.86182
lhand -0.322278 -18.7468
lfingers 7.12502
lthumb 25.2817 9.59792
rfemur -10.3678 7.39732 19.4166
rtibia 30.2027
rfoot -22.6731 -25.3578
rtoes -27.1014
lfemur -6.65664 -5.97191 -14.6608
ltibia 28.3247
lfoot -19.6923 19.946
ltoes -12.5652
106
root 22.2818 15.296 0.319459 177.724 -82.5633 -180.04
lowerback 10.7458 1.02363 1.57558
upperback 7.7859 1.0853 -0.214877
thorax 2.13318 0.443285 -1.20616
lowerneck -9.04294 5.64217 12.5609
upperneck -0.302949 6.58519 -14.1941
head 2.31777 2.91467 -6.04998
rclavicle 1.86361e-014 1.98785e-016
rhumerus 13.3966 34.1888 -82.0825
rradius 135.54
rwrist -1.81931
rhand -6.06458 17.535
rfingers 7.12502
rthumb 19.7703 -11.4795
lclavicle 1.86361e-014 1.98785e-016
lhumerus 17.7617 -16.3666 75.9475
lradius 144.249
lwrist 4.63801
lhand 0.162913 -18.5098
lfingers 7.12502
lthumb 25.7464 9.76844
rfemur -10.2266 7.14476 19.5176
rtibia 30.4512
rfoot -22.8023 -25.495
rtoes -27.1456
lfemur -6.85868 -5.92353 -14.5494
ltibia 28.848
lfoot -19.5342 19.7235
ltoes -13.7815
